<?xml version="1.0" encoding="UTF-8" standalone="no"?>
<!-- Created with Inkscape (http://www.inkscape.org/) -->

<svg
   xmlns:dc="http://purl.org/dc/elements/1.1/"
   xmlns:cc="http://creativecommons.org/ns#"
   xmlns:rdf="http://www.w3.org/1999/02/22-rdf-syntax-ns#"
   xmlns:svg="http://www.w3.org/2000/svg"
   xmlns="http://www.w3.org/2000/svg"
   xmlns:sodipodi="http://sodipodi.sourceforge.net/DTD/sodipodi-0.dtd"
   xmlns:inkscape="http://www.inkscape.org/namespaces/inkscape"
   width="265.97784"
   height="218.17099"
   id="svg2"
   version="1.1"
   inkscape:version="0.48.5 r10040"
   sodipodi:docname="canary.svg">
  <defs
     id="defs4" />
  <sodipodi:namedview
     id="base"
     pagecolor="#ffffff"
     bordercolor="#666666"
     borderopacity="1.0"
     inkscape:pageopacity="0.0"
     inkscape:pageshadow="2"
     inkscape:zoom="1.6423125"
     inkscape:cx="185.86807"
     inkscape:cy="118.18785"
     inkscape:document-units="px"
     inkscape:current-layer="layer1"
     showgrid="false"
     inkscape:window-width="1280"
     inkscape:window-height="938"
     inkscape:window-x="0"
     inkscape:window-y="0"
     inkscape:window-maximized="1"
     showborder="false"
     inkscape:showpageshadow="false"
     fit-margin-top="0"
     fit-margin-left="0"
     fit-margin-right="0"
     fit-margin-bottom="0" />
  <metadata
     id="metadata7">
    <rdf:RDF>
      <cc:Work
         rdf:about="">
        <dc:format>image/svg+xml</dc:format>
        <dc:type
           rdf:resource="http://purl.org/dc/dcmitype/StillImage" />
        <dc:title />
      </cc:Work>
    </rdf:RDF>
  </metadata>
  <g
     inkscape:label="Layer 1"
     inkscape:groupmode="layer"
     id="layer1"
     transform="translate(429.51235,-186.16058)">
    <g
       id="g3019"
       transform="matrix(0.27735866,0,0,0.30593728,-310.37975,129.20368)">
      <path
         transform="matrix(0.83146003,-0.55558458,0.55558458,0.83146003,-405.47393,59.85445)"
         d="m 499.99998,642.36218 c 0,74.95293 -170.77138,135.71428 -381.42855,135.71428 -210.65718,0 -381.42856,-60.76135 -381.42856,-135.71428 0,-74.95292 170.77138,-135.71428 381.42856,-135.71428 210.65717,0 381.42855,60.76136 381.42855,135.71428 z"
         sodipodi:ry="135.71428"
         sodipodi:rx="381.42856"
         sodipodi:cy="642.36218"
         sodipodi:cx="118.57143"
         id="path3836"
         style="fill:#ffff00;fill-rule:evenodd;stroke:#000000;stroke-width:1px;stroke-linecap:butt;stroke-linejoin:miter;stroke-opacity:1"
         sodipodi:type="arc" />
      <path
         transform="matrix(0.96462393,0.26362979,-0.26362979,0.96462393,117.88674,-98.466674)"
         d="m 80.000002,862.36218 c 0,38.65994 -10.873085,70 -24.285715,70 -13.41263,0 -24.285715,-31.34006 -24.285715,-70 0,-38.65993 10.873085,-70 24.285715,-70 13.41263,0 24.285715,31.34007 24.285715,70 z"
         sodipodi:ry="70"
         sodipodi:rx="24.285715"
         sodipodi:cy="862.36218"
         sodipodi:cx="55.714287"
         id="path3838"
         style="fill:#ffff00;fill-rule:evenodd;stroke:#000000;stroke-width:1px;stroke-linecap:butt;stroke-linejoin:miter;stroke-opacity:1"
         sodipodi:type="arc" />
      <path
         transform="matrix(0.88150951,-0.47216627,0.47216627,0.88150951,-367.71958,-10.0833)"
         d="m 80.000002,862.36218 c 0,38.65994 -10.873085,70 -24.285715,70 -13.41263,0 -24.285715,-31.34006 -24.285715,-70 0,-38.65993 10.873085,-70 24.285715,-70 13.41263,0 24.285715,31.34007 24.285715,70 z"
         sodipodi:ry="70"
         sodipodi:rx="24.285715"
         sodipodi:cy="862.36218"
         sodipodi:cx="55.714287"
         id="path3838-7"
         style="fill:#ffff00;fill-rule:evenodd;stroke:#000000;stroke-width:1px;stroke-linecap:butt;stroke-linejoin:miter;stroke-opacity:1"
         sodipodi:type="arc" />
      <path
         transform="translate(-120,-111.42857)"
         d="m 574.28572,405.21933 c 0,59.17337 -58.84258,107.14286 -131.42857,107.14286 -72.586,0 -131.42858,-47.96949 -131.42858,-107.14286 0,-59.17337 58.84258,-107.14286 131.42858,-107.14286 72.58599,0 131.42857,47.96949 131.42857,107.14286 z"
         sodipodi:ry="107.14286"
         sodipodi:rx="131.42857"
         sodipodi:cy="405.21933"
         sodipodi:cx="442.85715"
         id="path3858"
         style="fill:#ffff00;fill-rule:evenodd;stroke:#000000;stroke-width:1px;stroke-linecap:butt;stroke-linejoin:miter;stroke-opacity:1"
         sodipodi:type="arc" />
      <path
         transform="matrix(0.8422252,-0.53912588,0.53912588,0.8422252,-317.89914,-73.715666)"
         d="m 154.28572,615.2193 c 0,37.87095 -151.5835969,68.57143 -338.57144,68.57143 -186.98784,0 -338.57144,-30.70048 -338.57144,-68.57143 0,-37.87095 151.5836,-68.57143 338.57144,-68.57143 186.9878431,0 338.57144,30.70048 338.57144,68.57143 z"
         sodipodi:ry="68.571426"
         sodipodi:rx="338.57144"
         sodipodi:cy="615.2193"
         sodipodi:cx="-184.28572"
         id="path3860"
         style="fill:#ffff00;fill-rule:evenodd;stroke:#000000;stroke-width:1px;stroke-linecap:butt;stroke-linejoin:miter;stroke-opacity:1"
         sodipodi:type="arc" />
      <path
         transform="matrix(1,0,0,0.78151139,1114.6918,216.35431)"
         inkscape:transform-center-y="-2.2328889"
         inkscape:transform-center-x="-15.382785"
         d="M -585.71431,138.07647 -697.80588,191.364 -687.90845,67.646084 z"
         inkscape:randomized="0"
         inkscape:rounded="0"
         inkscape:flatsided="true"
         sodipodi:arg2="1.1270275"
         sodipodi:arg1="0.079829986"
         sodipodi:r2="35.828388"
         sodipodi:r1="71.656776"
         sodipodi:cy="132.36218"
         sodipodi:cx="-657.14288"
         sodipodi:sides="3"
         id="path3874"
         style="fill:#ffb380;fill-rule:evenodd;stroke:#000000;stroke-width:1px;stroke-linecap:butt;stroke-linejoin:miter;stroke-opacity:1"
         sodipodi:type="star" />
      <path
         transform="translate(597.14286,28.57143)"
         d="m -260.00001,223.79076 c 0,9.46773 -8.31472,17.14285 -18.57143,17.14285 -10.25672,0 -18.57143,-7.67512 -18.57143,-17.14285 0,-9.46774 8.31471,-17.14286 18.57143,-17.14286 10.25671,0 18.57143,7.67512 18.57143,17.14286 z"
         sodipodi:ry="17.142857"
         sodipodi:rx="18.571428"
         sodipodi:cy="223.79076"
         sodipodi:cx="-278.57144"
         id="path3876"
         style="fill:#000000;fill-rule:evenodd;stroke:#000000;stroke-width:1px;stroke-linecap:butt;stroke-linejoin:miter;stroke-opacity:1"
         sodipodi:type="arc" />
      <path
         inkscape:connector-curvature="0"
         id="path3015"
         d="m -74.751288,815.98649 -16.162441,52.52793 -52.527931,24.24366 54.548236,-26.26397 -6.060915,32.32489 4.04061,-34.34519 38.385797,20.20305 -42.426407,-20.20305"
         style="fill:none;stroke:#000000;stroke-width:1px;stroke-linecap:butt;stroke-linejoin:miter;stroke-opacity:1" />
      <path
         inkscape:connector-curvature="0"
         id="path3017"
         d="m 121.21831,787.70222 44.44671,64.64976 -32.32488,40.4061 30.30457,-42.42641 16.16244,28.28427 -12.12183,-24.24366 40.4061,-2.0203 -42.4264,0"
         style="fill:none;stroke:#000000;stroke-width:1px;stroke-linecap:butt;stroke-linejoin:miter;stroke-opacity:1" />
    </g>
  </g>
</svg>
